<?xml version="1.0" encoding="UTF-8" standalone="no"?>
<!DOCTYPE svg PUBLIC "-//W3C//DTD SVG 1.1//EN" "http://www.w3.org/Graphics/SVG/1.1/DTD/svg11.dtd">
<svg width="100%" height="100%" viewBox="0 0 392 392" version="1.1" xmlns="http://www.w3.org/2000/svg" xmlns:xlink="http://www.w3.org/1999/xlink" xml:space="preserve" xmlns:serif="http://www.serif.com/" style="fill-rule:evenodd;clip-rule:evenodd;stroke-linejoin:round;stroke-miterlimit:2;">
    <g transform="matrix(1,0,0,1,-583.339,-845.715)">
        <g transform="matrix(1,0,0,1,101.741,476.345)">
            <rect x="481.598" y="369.37" width="391.435" height="391.435" style="fill:rgb(126,245,178);"/>
            <clipPath id="_clip1">
                <rect x="481.598" y="369.37" width="391.435" height="391.435"/>
            </clipPath>
            <g clip-path="url(#_clip1)">
                <g transform="matrix(1,0,0,1,162.685,-267.872)">
                    <circle cx="490.762" cy="679.815" r="114.727" style="fill:rgb(130,229,174);"/>
                </g>
                <g transform="matrix(0.679469,0,0,0.679469,330.952,286.634)">
                    <circle cx="490.762" cy="679.815" r="114.727" style="fill:rgb(130,229,174);"/>
                </g>
                <g transform="matrix(0.687731,0,0,0.687731,260.902,97.5582)">
                    <circle cx="490.762" cy="679.815" r="114.727" style="fill:rgb(170,244,202);"/>
                </g>
                <g transform="matrix(0.687731,0,0,0.687731,535.52,236.153)">
                    <circle cx="490.762" cy="679.815" r="114.727" style="fill:rgb(170,244,202);"/>
                </g>
                <g transform="matrix(0.687731,0,0,0.687731,460.747,-2.18125)">
                    <circle cx="490.762" cy="679.815" r="114.727" style="fill:rgb(170,244,202);"/>
                </g>
            </g>
        </g>
    </g>
</svg>
