<?xml version="1.0" encoding="UTF-8" standalone="no"?>
<!DOCTYPE svg PUBLIC "-//W3C//DTD SVG 1.1//EN" "http://www.w3.org/Graphics/SVG/1.1/DTD/svg11.dtd">
<svg width="100%" height="100%" viewBox="0 0 392 392" version="1.1" xmlns="http://www.w3.org/2000/svg" xmlns:xlink="http://www.w3.org/1999/xlink" xml:space="preserve" xmlns:serif="http://www.serif.com/" style="fill-rule:evenodd;clip-rule:evenodd;stroke-linecap:round;stroke-linejoin:round;stroke-miterlimit:1.5;">
    <g transform="matrix(1,0,0,1,-969.453,-404.201)">
        <g transform="matrix(1,0,0,1,487.855,34.8308)">
            <rect x="481.598" y="369.37" width="391.435" height="391.435" style="fill:rgb(126,245,178);"/>
            <clipPath id="_clip1">
                <rect x="481.598" y="369.37" width="391.435" height="391.435"/>
            </clipPath>
            <g clip-path="url(#_clip1)">
                <g transform="matrix(0.878409,0,0,0.878409,143.868,51.9933)">
                    <circle cx="515.24" cy="478.364" r="92.048" style="fill:white;fill-opacity:0;"/>
                </g>
                <g transform="matrix(0.878409,0,0,0.878409,305.58,51.9933)">
                    <circle cx="515.24" cy="478.364" r="92.048" style="fill:white;fill-opacity:0;"/>
                </g>
                <g transform="matrix(0.417997,0.417997,-0.707107,0.707107,585.55,-154.492)">
                    <path d="M665.444,435.419L859.912,435.419" style="fill:none;stroke:rgb(85,177,126);stroke-width:24.64px;"/>
                </g>
                <g transform="matrix(-0.417997,0.417997,-0.707107,-0.707107,1223.14,461.283)">
                    <path d="M665.444,435.419L859.912,435.419" style="fill:none;stroke:rgb(85,177,126);stroke-width:24.64px;"/>
                </g>
                <g transform="matrix(0.417997,0.417997,-0.707107,0.707107,747.262,-154.492)">
                    <path d="M665.444,435.419L859.912,435.419" style="fill:none;stroke:rgb(85,177,126);stroke-width:24.64px;"/>
                </g>
                <g transform="matrix(-0.417997,0.417997,-0.707107,-0.707107,1384.86,461.283)">
                    <path d="M665.444,435.419L859.912,435.419" style="fill:none;stroke:rgb(85,177,126);stroke-width:24.64px;"/>
                </g>
                <g transform="matrix(1,0,0,1,96.9304,31.0367)">
                    <circle cx="490.762" cy="679.815" r="114.727" style="fill:rgb(130,229,174);stroke:rgb(130,229,174);stroke-width:1px;"/>
                </g>
                <g transform="matrix(0.687731,0,0,0.687731,535.52,164.421)">
                    <circle cx="490.762" cy="679.815" r="114.727" style="fill:rgb(170,244,202);"/>
                </g>
            </g>
        </g>
    </g>
</svg>
